<svg id="Phone" xmlns="http://www.w3.org/2000/svg" viewBox="0 0 108.04 108.27"><defs><style>.cls-1{fill:#eb870c;}</style></defs><title>contactphonecopy</title><path class="cls-1" d="M67.32,82C58,74.32,51.83,64.9,48.58,59.54L46.14,55C47,54,53.48,47.1,56.28,43.34c3.53-4.73-1.58-9-1.58-9S40.3,19.93,37,17.08A7.05,7.05,0,0,0,30,15.8c-6.89,4.46-14,8.34-14.47,27C15.46,60.22,28.7,78.22,43,92.15c14.34,15.73,34,31.5,53.08,31.48,18.64-.42,22.51-7.57,27-14.47a7.07,7.07,0,0,0-1.27-7.06c-2.86-3.28-17.26-17.69-17.26-17.69s-4.27-5.12-9-1.58c-3.53,2.63-9.86,8.49-11.38,9.91C84.17,92.75,73.58,87.1,67.32,82Z" transform="translate(-15.48 -15.36)"/></svg>