<svg id="Layer_1" data-name="Layer 1" xmlns="http://www.w3.org/2000/svg" viewBox="0 0 512 512"><defs><style>.cls-1{fill:#eb870c;}</style></defs><title>envelopecopy</title><path class="cls-1" d="M176,216H336a16,16,0,0,0,16-16V184a16,16,0,0,0-16-16H176a16,16,0,0,0-16,16v16A16,16,0,0,0,176,216Zm-16,80a16,16,0,0,0,16,16H336a16,16,0,0,0,16-16V280a16,16,0,0,0-16-16H176a16,16,0,0,0-16,16Zm96,121.13a79.89,79.89,0,0,1-46.86-15.19L0,250.86V464a48,48,0,0,0,48,48H464a48,48,0,0,0,48-48V250.86L302.86,401.94A80,80,0,0,1,256,417.13ZM493.61,163c-8.85-6.94-17.24-13.47-29.61-22.81V96a48,48,0,0,0-48-48H338.45l-9-6.56C312.6,29.17,279.2-.35,256,0c-23.2-.35-56.59,29.17-73.41,41.44l-9,6.56H96A48,48,0,0,0,48,96v44.14C35.63,149.47,27.24,156,18.39,163A48,48,0,0,0,0,200.72v10.65l96,69.35V96H416V280.72l96-69.35V200.72A48,48,0,0,0,493.61,163Z" transform="translate(0 0)"/></svg>