<svg id="Google_Plus_alt" data-name="Google Plus alt" xmlns="http://www.w3.org/2000/svg" viewBox="0 0 420 280"><defs><style>.cls-1{fill:#eb870c;}</style></defs><title>googlecopy</title><path class="cls-1" d="M317.69,229.75a159.65,159.65,0,0,1,2.71,29.4c0,80-53.55,136.85-134.4,136.85a140,140,0,0,1,0-280c37.8,0,69.39,13.91,93.63,36.49L240.16,192v-.09c-14.7-14-33.33-21.17-54.16-21.17-46.2,0-83.74,39-83.74,85.23S139.8,341.23,186,341.23c41.91,0,70.44-24,76.31-56.88H186v-54.6Zm104.56,8.75V194.75h-35V238.5H343.5v35h43.75v43.75h35V273.5H466v-35Z" transform="translate(-46 -116)"/></svg>