<svg id="Layer_1" data-name="Layer 1" xmlns="http://www.w3.org/2000/svg" viewBox="0 0 333.8 269.28"><defs><style>.cls-1{fill:#eb870c;}</style></defs><title>missioncopy</title><path class="cls-1" d="M92.6,249.14c.71-1.63.37-3.39.5-5.06a131.5,131.5,0,0,1,4.52-24.75,129.81,129.81,0,0,1,10.33-26,132.54,132.54,0,0,1,14.91-22.54,134.67,134.67,0,0,1,31.29-28,136.09,136.09,0,0,1,27-13.36,141.64,141.64,0,0,1,28.35-7c3.57-.53,7.2-.64,10.82-.86,3.14-.18,6.28-.34,9.41-.21a156.81,156.81,0,0,1,21,2.09,137.41,137.41,0,0,1,26.85,7.72,131.83,131.83,0,0,1,32.78,19.12,128.33,128.33,0,0,1,14.28,13,145.46,145.46,0,0,1,12.6,15.41c.6.85.48,1.27-.37,1.76-6.75,3.89-13.49,7.77-20.2,11.71-1.1.65-1.49-.09-1.94-.71a99.32,99.32,0,0,0-12.12-13.94,113.71,113.71,0,0,0-23-17A109,109,0,0,0,252.69,150a97.48,97.48,0,0,0-16.56-2.64,96.46,96.46,0,0,0-11-.54c-14.12.6-27.81,3.24-40.86,8.89a109.11,109.11,0,0,0-64.77,82.7,99.35,99.35,0,0,0-1.38,21.65,112.82,112.82,0,0,0,8.8,38.74,107,107,0,0,0,14.81,24.85,109.13,109.13,0,0,0,60.11,38.36,103.49,103.49,0,0,0,15.94,2.52,93.33,93.33,0,0,0,10.69.53,117.8,117.8,0,0,0,32.07-5.39,110.72,110.72,0,0,0,28.9-14.42,121.16,121.16,0,0,0,10.86-8.72,109.26,109.26,0,0,0,29-43.15,113.86,113.86,0,0,0,4.95-18.4c.61-3.39.86-6.83,1.3-10.24.36-2.85.23-5.72.39-8.56a73.25,73.25,0,0,0-.5-10.66,104.12,104.12,0,0,0-3.18-17.6,105.57,105.57,0,0,0-5-14.53c-.43-1-.3-1.5.69-2.06q10-5.7,19.92-11.52c.94-.55,1.25-.39,1.68.58a130.18,130.18,0,0,1,9.34,29.06,142.41,142.41,0,0,1,2.51,22.3,147.33,147.33,0,0,1-.38,15.88,123,123,0,0,1-4.13,23.5,133.47,133.47,0,0,1-11.11,28.14,129.8,129.8,0,0,1-15.7,23.16,130.08,130.08,0,0,1-32.73,28.3,133.59,133.59,0,0,1-53.95,18.82c-2.26.27-4.5.68-6.75,1h-15c-.33-.39-.79-.28-1.21-.28a85.35,85.35,0,0,1-12.89-1.08,143.18,143.18,0,0,1-26.45-6.68,133.94,133.94,0,0,1-58.27-41.38A131.53,131.53,0,0,1,108,318.66a129.77,129.77,0,0,1-10.32-26,132.33,132.33,0,0,1-4.53-24.75c-.12-1.67.21-3.43-.5-5.06Z" transform="translate(-92.6 -121.33)"/><path class="cls-1" d="M426.4,160.8c-3.8,2.16-7.62,4.29-11.41,6.48q-11.58,6.67-23.14,13.39a29.56,29.56,0,0,0-4.19,2.47c-2.74,2.27-5.6,2.14-8.75,1-2.64-.92-5.4-1.48-8.08-2.31a3.12,3.12,0,0,0-2.72.46Q350,192.8,331.9,203.24q-21,12.18-42.08,24.38c-9.07,5.25-18.17,10.43-27.25,15.67-9.36,5.41-18.71,10.81-28,16.29-3.46,2-6.93,1.61-9-1.11a6,6,0,0,1,1.44-8.65c4.28-2.64,8.66-5.09,13-7.6l31.44-18.16c8.32-4.82,16.62-9.68,24.95-14.49,10.16-5.86,20.34-11.66,30.5-17.52,11.79-6.81,23.56-13.68,35.36-20.47a3.12,3.12,0,0,0,1.51-2.13c1.06-3.95,2.18-7.9,3.17-11.87a2.28,2.28,0,0,1,1.26-1.54l26.55-15.3L410,132c-.59,3.59-1.11,6.91-1.69,10.21-.67,3.82-1.39,7.62-2.08,11.43-.17.92-.08,1.59,1.08,1.89,6.37,1.62,12.73,3.32,19.09,5Z" transform="translate(-92.6 -121.33)"/><path class="cls-1" d="M145.47,257.18A81.64,81.64,0,0,1,210.18,176a76.87,76.87,0,0,1,20.95-1.72,82.1,82.1,0,0,1,47.8,18.53A79.22,79.22,0,0,1,291,205.19c.77,1,.75,1.45-.45,2.12q-11.29,6.39-22.46,13c-.94.55-1.36.52-2.13-.3a52.47,52.47,0,0,0-31.46-16.62,50.86,50.86,0,0,0-29.25,4.23c-14.59,6.8-24.24,17.94-29.12,33.24a49.85,49.85,0,0,0-2.06,18.91,51.41,51.41,0,0,0,11.94,29.88c9.08,10.91,20.65,17.42,34.77,19.1A51.24,51.24,0,0,0,259.42,298a51.92,51.92,0,0,0,20-33.56,50.81,50.81,0,0,0-1.33-22.9c-.22-.76-.25-1.14.61-1.63q11.6-6.63,23.13-13.41c.87-.51,1.2-.45,1.59.58a78.85,78.85,0,0,1,4.44,17.5,77.94,77.94,0,0,1,.82,14.55,82.09,82.09,0,0,1-19.75,50.27,80.74,80.74,0,0,1-17.58,15.24A79.45,79.45,0,0,1,243.63,336,77.86,77.86,0,0,1,225,337.72a85.58,85.58,0,0,1-22.73-3.85,79.41,79.41,0,0,1-24.6-12.79,82.15,82.15,0,0,1-31.54-54A51.62,51.62,0,0,1,145.47,257.18Z" transform="translate(-92.6 -121.33)"/><path class="cls-1" d="M226.16,228.88a25.68,25.68,0,0,1,15.65,4.58c1.66,1.1,1.59,1.15-.06,2.1-5.7,3.29-11.49,6.45-17,10s-6.52,10.18-2.95,15.51c3.33,5,9.88,6.21,15.23,3,4.92-2.93,9.92-5.73,14.85-8.64,1.28-.76,1.53-.41,1.47.91A26.4,26.4,0,0,1,245.9,274a25.85,25.85,0,0,1-20.21,8.28A26.64,26.64,0,0,1,200.08,259a27,27,0,0,1,2.24-14.83,25.78,25.78,0,0,1,14.26-13.47A21.7,21.7,0,0,1,226.16,228.88Z" transform="translate(-92.6 -121.33)"/></svg>