<?xml version="1.0" encoding="utf-8"?>
<!-- Generator: Adobe Illustrator 22.0.0, SVG Export Plug-In . SVG Version: 6.00 Build 0)  -->
<svg version="1.1" id="Layer_1" xmlns="http://www.w3.org/2000/svg" xmlns:xlink="http://www.w3.org/1999/xlink" x="0px" y="0px"
	 viewBox="0 0 512 512" style="enable-background:new 0 0 512 512;" xml:space="preserve">
<style type="text/css">
	.st0{fill:#EB870C;}
</style>
<g>
	<path class="st0" d="M92.6,249.1c0.7-1.6,0.4-3.4,0.5-5.1c0.6-8.4,2.3-16.6,4.5-24.8c2.5-9.1,6-17.7,10.3-26
		c4.2-8,9.2-15.5,14.9-22.5c9-11,19.4-20.3,31.3-28c8.5-5.5,17.5-9.9,27-13.4c9.2-3.4,18.7-5.5,28.4-7c3.6-0.5,7.2-0.6,10.8-0.9
		c3.1-0.2,6.3-0.3,9.4-0.2c7.1,0.3,14.1,0.8,21,2.1c9.2,1.7,18.2,4.2,26.9,7.7c11.9,4.8,22.8,11.2,32.8,19.1c5.1,4,9.9,8.3,14.3,13
		c4.5,4.9,8.8,10,12.6,15.4c0.6,0.9,0.5,1.3-0.4,1.8c-6.8,3.9-13.5,7.8-20.2,11.7c-1.1,0.6-1.5-0.1-1.9-0.7
		c-3.6-5-7.6-9.7-12.1-13.9c-7-6.6-14.6-12.3-23-17c-8.5-4.7-17.5-8.2-26.9-10.5c-5.4-1.4-11-2.2-16.6-2.6c-3.7-0.3-7.3-0.7-11-0.5
		c-14.1,0.6-27.8,3.2-40.9,8.9c-10.3,4.4-19.6,10.2-28.1,17.5c-9.7,8.4-17.8,18.1-24.1,29.3c-6.3,11.2-10.5,23.2-12.6,35.9
		c-1.2,7.1-1.8,14.4-1.4,21.6c0.7,13.4,3.5,26.3,8.8,38.7c3.8,9,8.7,17.3,14.8,24.9c8.8,11,19.3,20.1,31.6,27.1
		c9,5.1,18.5,8.9,28.5,11.3c5.3,1.2,10.6,2.1,15.9,2.5c3.6,0.3,7.1,0.7,10.7,0.5c10.9-0.4,21.6-2,32.1-5.4
		c10.4-3.4,20-8.2,28.9-14.4c3.8-2.7,7.4-5.6,10.9-8.7c6.9-6.1,12.7-13.1,17.8-20.8c4.6-7,8.4-14.5,11.3-22.4c2.2-6,3.8-12.1,5-18.4
		c0.6-3.4,0.9-6.8,1.3-10.2c0.4-2.9,0.2-5.7,0.4-8.6c0.2-3.5-0.2-7.1-0.5-10.7c-0.5-6-1.6-11.8-3.2-17.6c-1.3-5-3-9.8-5-14.5
		c-0.4-1-0.3-1.5,0.7-2.1c6.7-3.8,13.3-7.6,19.9-11.5c0.9-0.5,1.3-0.4,1.7,0.6c4.2,9.3,7.4,19,9.3,29.1c1.5,7.4,2.2,14.8,2.5,22.3
		c0.2,5.3,0,10.6-0.4,15.9c-0.6,7.9-2,15.8-4.1,23.5c-2.7,9.8-6.3,19.2-11.1,28.1c-4.4,8.3-9.6,16-15.7,23.2
		c-3.2,3.7-6.5,7.4-10,10.8c-7,6.6-14.5,12.4-22.7,17.5c-8.5,5.2-17.5,9.4-26.9,12.7c-8.8,3-17.8,5.1-27,6.2c-2.3,0.3-4.5,0.7-6.7,1
		c-5,0-10,0-15,0c-0.3-0.4-0.8-0.3-1.2-0.3c-4.3,0-8.6-0.4-12.9-1.1c-9-1.4-17.8-3.6-26.4-6.7c-9.5-3.5-18.5-7.9-27-13.4
		c-11.9-7.7-22.3-17-31.3-28c-5.7-7-10.7-14.5-14.9-22.5c-4.3-8.3-7.9-17-10.3-26c-2.2-8.1-3.9-16.3-4.5-24.8
		c-0.1-1.7,0.2-3.4-0.5-5.1C92.6,258.3,92.6,253.7,92.6,249.1z"/>
	<path class="st0" d="M426.4,160.8c-3.8,2.2-7.6,4.3-11.4,6.5c-7.7,4.5-15.4,8.9-23.1,13.4c-1.4,0.8-3,1.4-4.2,2.5
		c-2.7,2.3-5.6,2.1-8.8,1c-2.6-0.9-5.4-1.5-8.1-2.3c-1.1-0.3-1.9,0-2.7,0.5c-12.1,7-24.1,13.9-36.2,20.9c-14,8.1-28,16.3-42.1,24.4
		c-9.1,5.2-18.2,10.4-27.3,15.7c-9.4,5.4-18.7,10.8-28,16.3c-3.5,2-6.9,1.6-9-1.1c-2.1-2.8-1.5-6.8,1.4-8.7c4.3-2.6,8.7-5.1,13-7.6
		c10.5-6.1,21-12.1,31.4-18.2c8.3-4.8,16.6-9.7,25-14.5c10.2-5.9,20.3-11.7,30.5-17.5c11.8-6.8,23.6-13.7,35.4-20.5
		c0.9-0.5,1.3-1.2,1.5-2.1c1.1-4,2.2-7.9,3.2-11.9c0.2-0.8,0.6-1.2,1.3-1.5c8.9-5.1,17.7-10.2,26.6-15.3c5-2.9,10-5.8,15.2-8.8
		c-0.6,3.6-1.1,6.9-1.7,10.2c-0.7,3.8-1.4,7.6-2.1,11.4c-0.2,0.9-0.1,1.6,1.1,1.9c6.4,1.6,12.7,3.3,19.1,5
		C426.4,160.6,426.4,160.7,426.4,160.8z"/>
	<path class="st0" d="M145.5,257.2c-0.1-15,3.2-27.9,9.7-40c5.3-9.9,12.4-18.3,21.2-25.3c10-8,21.3-13.2,33.8-15.9
		c6.9-1.5,13.9-2.2,20.9-1.7c17.9,1.1,33.9,7.2,47.8,18.5c4.5,3.7,8.5,7.8,12.1,12.4c0.8,1,0.7,1.4-0.5,2.1c-7.5,4.3-15,8.6-22.5,13
		c-0.9,0.5-1.4,0.5-2.1-0.3c-8.6-9.2-19.1-14.8-31.5-16.6c-10.1-1.5-19.9-0.1-29.2,4.2c-14.6,6.8-24.2,17.9-29.1,33.2
		c-2,6.2-2.5,12.5-2.1,18.9c0.8,11.2,4.7,21.2,11.9,29.9c9.1,10.9,20.6,17.4,34.8,19.1c14.3,1.7,27.2-1.9,38.6-10.7
		c11-8.5,17.7-19.8,20-33.6c1.3-7.7,0.8-15.4-1.3-22.9c-0.2-0.8-0.3-1.1,0.6-1.6c7.7-4.4,15.4-8.9,23.1-13.4
		c0.9-0.5,1.2-0.4,1.6,0.6c2.2,5.7,3.6,11.5,4.4,17.5c0.7,4.8,1.1,9.7,0.8,14.5c-0.5,10-2.5,19.8-6.5,29
		c-3.3,7.8-7.7,14.8-13.2,21.3c-5.1,6-11,11-17.6,15.2c-8.5,5.5-17.8,9.4-27.7,11.4c-6.1,1.3-12.4,1.9-18.7,1.7
		c-7.7-0.3-15.3-1.5-22.7-3.8c-8.9-2.8-17.2-7.1-24.6-12.8c-8.9-6.8-16.1-15-21.6-24.7c-5.2-9.1-8.4-18.9-9.9-29.3
		C145.6,263.4,145.3,259.7,145.5,257.2z"/>
	<path class="st0" d="M226.2,228.9c6-0.2,11,1.5,15.7,4.6c1.7,1.1,1.6,1.2-0.1,2.1c-5.7,3.3-11.5,6.5-17,10
		c-5.4,3.5-6.5,10.2-2.9,15.5c3.3,5,9.9,6.2,15.2,3c4.9-2.9,9.9-5.7,14.8-8.6c1.3-0.8,1.5-0.4,1.5,0.9c-0.3,6.8-2.7,12.7-7.4,17.7
		c-5.5,5.8-12.3,8.5-20.2,8.3c-13.5-0.4-24.2-10.8-25.6-23.3c-0.6-5.2,0.1-10.2,2.2-14.8c3-6.3,7.7-10.9,14.3-13.5
		C219.8,229.4,223.1,228.6,226.2,228.9z"/>
</g>
</svg>
