<svg id="Layer_1" data-name="Layer 1" xmlns="http://www.w3.org/2000/svg" viewBox="0 0 22.89 22.93"><defs><style>.cls-1{fill:none;stroke:#eb870c;stroke-linecap:round;stroke-linejoin:round;stroke-width:2px;}</style></defs><title>phonecopy</title><path class="cls-1" d="M15.05,5A5,5,0,0,1,19,9M15.05,1a9,9,0,0,1,8,7.94m-1,8v3a2,2,0,0,1-2,2h-.19a19.79,19.79,0,0,1-8.63-3.07,19.52,19.52,0,0,1-6-6A19.82,19.82,0,0,1,2.12,4.18,2,2,0,0,1,3.93,2H7.11a2,2,0,0,1,2,1.72,13,13,0,0,0,.7,2.81,2,2,0,0,1-.45,2.11L8.09,9.91a16,16,0,0,0,6,6l1.27-1.27a2,2,0,0,1,2.11-.45,13,13,0,0,0,2.81.7A2,2,0,0,1,22,16.92Z" transform="translate(-1.11 0)"/></svg>