<?xml version="1.0" encoding="utf-8"?>
<!-- Generator: Adobe Illustrator 22.0.0, SVG Export Plug-In . SVG Version: 6.00 Build 0)  -->
<svg version="1.1" id="Stay_x5F_organize" xmlns="http://www.w3.org/2000/svg" xmlns:xlink="http://www.w3.org/1999/xlink" x="0px"
	 y="0px" viewBox="0 0 512 512" style="enable-background:new 0 0 512 512;" xml:space="preserve">
<style type="text/css">
	.st0{fill:#EB870C;}
</style>
<g>
	<path class="st0" d="M488.3,229.4l-26.8-5.9c-5.1-1.1-8.9-5.1-10-10.1c-4.2-20-11.5-39-21.2-56.3c-2.4-4.2-2.2-9.4,0.4-13.5
		L447,118c3.3-5.2,2.6-12-1.8-16.4l-27.2-27.2c-4.4-4.4-11.2-5.1-16.4-1.8l-22.9,14.6c-4.4,2.8-9.9,2.7-14.3-0.1
		c-16.8-10.9-35.4-19.3-55.2-24.8c-4.7-1.3-8.3-5.1-9.3-9.8l-6.5-29.6c-1.3-6-6.7-10.5-12.9-10.5h-38.5c-6.2,0-11.5,4.4-12.9,10.5
		l-5.9,26.8c-1.1,5-5,9-10.1,10.1c-20,4.4-38.9,11.7-56.1,21.6c-4.2,2.4-9.5,2.3-13.6-0.3l-25.8-16.5c-5.2-3.3-12-2.6-16.4,1.8
		L74.3,93.4c-4.4,4.4-5.1,11.2-1.8,16.4l15.1,23.6c2.8,4.3,2.8,9.9,0,14.2c-10.6,16.6-18.8,34.8-24.1,54.2c-1.3,4.7-5.1,8.3-9.8,9.3
		l-30.8,6.7c-6,1.3-10.4,6.7-10.4,12.9v38.5c0,6.2,4.4,11.5,10.4,12.9l28.1,6.2c5,1.1,8.9,5,10,10c4.3,19.5,11.5,37.8,21,54.7
		c2.4,4.2,2.3,9.5-0.4,13.6l-17.3,27c-3.3,5.2-2.6,12,1.8,16.4l27.2,27.2c4.4,4.4,11.2,5.1,16.4,1.8l24.5-15.7
		c4.3-2.8,9.9-2.7,14.2,0c16.3,10.4,34.1,18.5,53.2,23.9c4.7,1.3,8.2,5.1,9.3,9.8l6.9,31.3c1.3,6,6.7,10.2,12.9,10.2h38.5
		c6.2,0,11.5-4.1,12.9-10.2l6.2-28.1c1.1-5,5.1-8.9,10.1-10c19.5-4.2,38-11.2,54.9-20.7c4.2-2.4,9.4-2.2,13.5,0.4l26.8,17.1
		c5.2,3.3,12,2.6,16.4-1.8l27.2-27.2c4.4-4.4,5.1-11.2,1.8-16.4l-15.2-23.8c-2.8-4.4-2.7-9.9,0.1-14.3
		c10.7-16.5,19.1-34.7,24.6-54.1c1.3-4.7,5.1-8.2,9.8-9.2l30.1-6.6c6-1.3,10.2-6.7,10.2-12.9v-38.5
		C498.5,236.1,494.3,230.8,488.3,229.4z M254.4,407.6c-82.3,0-149-66.7-149-149s66.7-149,149-149s149,66.7,149,149
		S336.7,407.6,254.4,407.6z"/>
	<path class="st0" d="M196.7,237.7c13,0,23.5-10.5,23.5-23.5c0-13-10.5-23.5-23.5-23.5c-13,0-23.5,10.5-23.5,23.5
		C173.2,227.1,183.7,237.7,196.7,237.7z"/>
	<path class="st0" d="M316.2,237.7c13,0,23.5-10.5,23.5-23.5c0-13-10.5-23.5-23.5-23.5c-13,0-23.5,10.5-23.5,23.5
		C292.7,227.1,303.2,237.7,316.2,237.7z"/>
	
		<ellipse transform="matrix(0.1602 -0.9871 0.9871 0.1602 -11.0401 445.6239)" class="st0" cx="256.4" cy="229.3" rx="23.5" ry="23.5"/>
	<path class="st0" d="M255.5,262.1c-25.1,0-45,20.4-45,45.5v9.3c0,1.8,1.6,3.5,3.4,3.5h84.4c1.8,0,2.2-1.7,2.2-3.5v-9.3
		C300.5,282.5,280.6,262.1,255.5,262.1z"/>
	<path class="st0" d="M226.6,258.6c-8-7.1-19.3-11.6-30.9-11.6c-25.1,0-46.2,20.3-46.2,45.4v9.3c0,1.8,3,3.7,4.8,3.7h45.2
		C200.5,284.5,211,268.6,226.6,258.6z"/>
	<path class="st0" d="M316,247c-11.6,0-22.2,4.6-30.2,11.7c15.5,10,26,25.8,27,46.8h45.3c1.8,0,3.3-1.9,3.3-3.7v-9.3
		c0-12.6-5.1-23.9-13.3-32.2C339.9,252.1,328.6,247,316,247z"/>
</g>
</svg>
