<svg id="Stay_organize" xmlns="http://www.w3.org/2000/svg" viewBox="0 0 486 486"><defs><style>.cls-1{fill:#eb870c;}</style></defs><title>servicecopy</title><path class="cls-1" d="M488.3,229.44l-26.8-5.89a13.11,13.11,0,0,1-10-10.15,198.35,198.35,0,0,0-21.23-56.31,13.12,13.12,0,0,1,.38-13.53L447,118a13.15,13.15,0,0,0-1.77-16.4l-27.2-27.2a13.16,13.16,0,0,0-16.4-1.78L378.79,87.24a13.15,13.15,0,0,1-14.26-.06,198.54,198.54,0,0,0-55.16-24.77A13.1,13.1,0,0,1,300,52.57L293.57,23A13.27,13.27,0,0,0,280.71,12.5H242.24A13.25,13.25,0,0,0,229.39,23l-5.87,26.79a13.18,13.18,0,0,1-10.06,10,198.24,198.24,0,0,0-56.11,21.55,13.14,13.14,0,0,1-13.6-.34L117.92,64.46a13.16,13.16,0,0,0-16.4,1.78l-27.2,27.2a13.16,13.16,0,0,0-1.78,16.41l15.13,23.62a13.17,13.17,0,0,1,0,14.19,198.6,198.6,0,0,0-24.12,54.21,13.17,13.17,0,0,1-9.85,9.35l-30.77,6.72A13.24,13.24,0,0,0,12.5,230.8v38.46a13.22,13.22,0,0,0,10.42,12.86l28.13,6.16a13.19,13.19,0,0,1,10,10,198.29,198.29,0,0,0,21,54.7,13.15,13.15,0,0,1-.36,13.56l-17.3,27A13.14,13.14,0,0,0,66.19,410l27.2,27.2a13.16,13.16,0,0,0,16.4,1.78l24.54-15.72a13.19,13.19,0,0,1,14.22,0,198.72,198.72,0,0,0,53.17,23.92A13.14,13.14,0,0,1,211,457l6.9,31.3a13,13,0,0,0,12.86,10.17h38.46a13,13,0,0,0,12.86-10.17l6.19-28.14a13.1,13.1,0,0,1,10.11-10,198.19,198.19,0,0,0,54.9-20.66,13.14,13.14,0,0,1,13.49.41l26.77,17.15a13.16,13.16,0,0,0,16.41-1.77l27.2-27.2a13.16,13.16,0,0,0,1.77-16.41l-15.23-23.78a13.17,13.17,0,0,1,.08-14.28,198.61,198.61,0,0,0,24.57-54.14,13.13,13.13,0,0,1,9.82-9.25l30.15-6.64a13,13,0,0,0,10.2-12.86V242.3A13,13,0,0,0,488.3,229.44ZM254.41,407.58a149,149,0,1,1,149-149A149,149,0,0,1,254.41,407.58Z" transform="translate(-12.5 -12.5)"/><path class="cls-1" d="M196.72,237.66a23.51,23.51,0,1,0-23.51-23.51A23.51,23.51,0,0,0,196.72,237.66Z" transform="translate(-12.5 -12.5)"/><path class="cls-1" d="M316.19,237.66a23.51,23.51,0,1,0-23.5-23.51A23.52,23.52,0,0,0,316.19,237.66Z" transform="translate(-12.5 -12.5)"/><circle class="cls-1" cx="256.36" cy="229.3" r="23.51" transform="translate(-23.54 433.12) rotate(-80.78)"/><path class="cls-1" d="M255.5,262.12c-25.13,0-45,20.37-45,45.5V317a3.63,3.63,0,0,0,3.44,3.54h84.4c1.82,0,2.16-1.72,2.16-3.54v-9.34C300.5,282.49,280.63,262.12,255.5,262.12Z" transform="translate(-12.5 -12.5)"/><path class="cls-1" d="M226.6,258.63a47.21,47.21,0,0,0-30.85-11.56c-25.14,0-46.25,20.29-46.25,45.4v9.34c0,1.82,3,3.69,4.79,3.69h45.16C200.45,284.5,211,268.63,226.6,258.63Z" transform="translate(-12.5 -12.5)"/><path class="cls-1" d="M316,247A45.39,45.39,0,0,0,285.8,258.7c15.5,10,26,25.8,27,46.8h45.33a3.69,3.69,0,0,0,3.34-3.69v-9.34A45.53,45.53,0,0,0,316,247Z" transform="translate(-12.5 -12.5)"/></svg>