<svg id="Layer_1" data-name="Layer 1" xmlns="http://www.w3.org/2000/svg" viewBox="0 0 460.87 288.33"><defs><style>.cls-1{fill:#eb870c;}</style></defs><title>teamcopy</title><path class="cls-1" d="M289,327a5.23,5.23,0,0,0-5.24,5.22v62.7a5.24,5.24,0,1,0,10.48,0V332.25A5.23,5.23,0,0,0,289,327Z" transform="translate(-25.61 -111.83)"/><path class="cls-1" d="M223.35,327a5.23,5.23,0,0,0-5.24,5.22v62.7a5.24,5.24,0,0,0,10.48,0V332.25a5.23,5.23,0,0,0-5.21-5.25Z" transform="translate(-25.61 -111.83)"/><path class="cls-1" d="M398.85,283.06a5.25,5.25,0,0,0-5.24,5.24h0v50.14a5.24,5.24,0,0,0,10.48,0V288.31a5.25,5.25,0,0,0-5.23-5.25Z" transform="translate(-25.61 -111.83)"/><path class="cls-1" d="M346.32,283.06a5.25,5.25,0,0,0-5.24,5.24h0v50.14a5.24,5.24,0,0,0,10.48,0V288.31a5.25,5.25,0,0,0-5.23-5.25Z" transform="translate(-25.61 -111.83)"/><path class="cls-1" d="M166.06,283.06a5.25,5.25,0,0,0-5.24,5.24h0v50.14a5.24,5.24,0,0,0,10.48,0V288.31a5.25,5.25,0,0,0-5.23-5.25Z" transform="translate(-25.61 -111.83)"/><path class="cls-1" d="M113.53,283.06a5.25,5.25,0,0,0-5.25,5.25v50.14a5.25,5.25,0,0,0,10.49,0V288.31a5.25,5.25,0,0,0-5.23-5.25Z" transform="translate(-25.61 -111.83)"/><path class="cls-1" d="M461.82,157.16h-.34a27.61,27.61,0,0,0,6.29-17.42,27.92,27.92,0,0,0-55.83,0,27.6,27.6,0,0,0,6.28,17.42h-.33a24.69,24.69,0,0,0-24.67,24.66v27.69A32.65,32.65,0,0,0,357.54,206V181.82a24.68,24.68,0,0,0-24.65-24.66h-.35a27.61,27.61,0,0,0,6.29-17.42,27.91,27.91,0,1,0-55.82,0,27.6,27.6,0,0,0,6.28,17.42H289a24.68,24.68,0,0,0-24.66,24.66v45a40.66,40.66,0,0,0-8.09-.81,40.24,40.24,0,0,0-18,4.41v-48.6a24.68,24.68,0,0,0-24.66-24.66h-.34a27.6,27.6,0,0,0,6.28-17.42,27.91,27.91,0,1,0-55.82,0A27.61,27.61,0,0,0,170,157.16h-.34A24.69,24.69,0,0,0,145,181.82v20.92a31.33,31.33,0,0,0-26.12,7.1v-28A24.69,24.69,0,0,0,94.2,157.18h-.33a27.6,27.6,0,0,0,6.28-17.42,27.92,27.92,0,0,0-55.83,0,27.61,27.61,0,0,0,6.29,17.42h-.34a24.7,24.7,0,0,0-24.66,24.66v40a5.24,5.24,0,1,0,10.48,0v-40a14.19,14.19,0,0,1,14.18-14.17H94.11a14.19,14.19,0,0,1,14.19,14.17v40a5.21,5.21,0,0,0,.33,1.66,33.06,33.06,0,0,0,6.91,35.37h-3.2a29.55,29.55,0,0,0-29.52,29.52v50a5.24,5.24,0,0,0,10.48,0h0v-50a19.06,19.06,0,0,1,19-19h54.92a19,19,0,0,1,19,19V394.93a5.25,5.25,0,0,0,10.49,0V332.37a25.13,25.13,0,0,1,25.1-25.09h68.64a25.13,25.13,0,0,1,25.1,25.09v62.56a5.25,5.25,0,0,0,10.49,0V288.41a19,19,0,0,1,19-19H400a19,19,0,0,1,19,19h0v50a5.24,5.24,0,1,0,10.48,0v-50a29.55,29.55,0,0,0-29.51-29.52h-3.2a33.41,33.41,0,0,0,6.67-36.15,5.26,5.26,0,0,0,.17-.88v-40a14.19,14.19,0,0,1,14.19-14.17h43.93A14.19,14.19,0,0,1,476,181.76v40.06a5.24,5.24,0,0,0,10.48,0v-40A24.7,24.7,0,0,0,461.82,157.16ZM54.72,139.74a17.43,17.43,0,1,1,17.44,17.42h0A17.45,17.45,0,0,1,54.72,139.74Zm238.77,0a17.43,17.43,0,1,1,17.44,17.42h0A17.46,17.46,0,0,1,293.49,139.74Zm-7.11,126.88a30.18,30.18,0,1,1-30.18-30.18h0A30.22,30.22,0,0,1,286.38,266.62ZM174.11,139.74a17.42,17.42,0,1,1,17.42,17.42h0A17.46,17.46,0,0,1,174.11,139.74Zm-57.4,96.06a23.09,23.09,0,1,1,23.09,23.09A23.09,23.09,0,0,1,116.71,235.8Zm105.17,61a35.49,35.49,0,0,0-25.1,10.39V288.41a29.55,29.55,0,0,0-29.52-29.52h-3.2a33.27,33.27,0,0,0-8.67-52.65V181.82a14.19,14.19,0,0,1,14.18-14.17H213.5a14.19,14.19,0,0,1,14.17,14.17v54a5,5,0,0,0,.33,1.63,40.28,40.28,0,0,0-1.31,56.95c.8.84,1.64,1.64,2.51,2.41Zm93.74-8.38v18.77a35.49,35.49,0,0,0-25.1-10.39H283.2a40.24,40.24,0,0,0-8.43-66.13V181.82A14.19,14.19,0,0,1,289,167.65h44a14.19,14.19,0,0,1,14.17,14.17v32.44a33.08,33.08,0,0,0,1.28,44.63h-3.2a29.55,29.55,0,0,0-29.57,29.52Zm33.89-52.61A23.09,23.09,0,1,1,372.6,258.9a23.09,23.09,0,0,1-23.09-23.09Zm72.91-96.06a17.43,17.43,0,1,1,17.44,17.42h0a17.46,17.46,0,0,1-17.43-17.43Z" transform="translate(-25.61 -111.83)"/></svg>