<?xml version="1.0" encoding="utf-8"?>
<!-- Generator: Adobe Illustrator 22.0.0, SVG Export Plug-In . SVG Version: 6.00 Build 0)  -->
<svg version="1.1" id="Layer_1" xmlns="http://www.w3.org/2000/svg" xmlns:xlink="http://www.w3.org/1999/xlink" x="0px" y="0px"
	 viewBox="0 0 512 512" style="enable-background:new 0 0 512 512;" xml:space="preserve">
<style type="text/css">
	.st0{fill:#EB870C;}
</style>
<title></title>
<path class="st0" d="M289,327c-2.9,0-5.2,2.3-5.2,5.2c0,0,0,0,0,0v62.7c0,2.9,2.3,5.2,5.2,5.2c2.9,0,5.2-2.3,5.2-5.2v-62.7
	C294.3,329.4,291.9,327,289,327C289,327,289,327,289,327z"/>
<path class="st0" d="M223.4,327c-2.9,0-5.2,2.3-5.2,5.2c0,0,0,0,0,0v62.7c0,2.9,2.4,5.2,5.2,5.2c2.9,0,5.2-2.3,5.2-5.2v-62.7
	C228.6,329.4,226.3,327,223.4,327C223.4,327,223.4,327,223.4,327z"/>
<path class="st0" d="M398.9,283.1c-2.9,0-5.2,2.3-5.2,5.2c0,0,0,0,0,0v50.1c0,2.9,2.3,5.2,5.2,5.2c2.9,0,5.2-2.3,5.2-5.2v-50.1
	C404.1,285.4,401.8,283.1,398.9,283.1C398.9,283.1,398.9,283.1,398.9,283.1z"/>
<path class="st0" d="M346.3,283.1c-2.9,0-5.2,2.3-5.2,5.2c0,0,0,0,0,0v50.1c0,2.9,2.3,5.2,5.2,5.2c2.9,0,5.2-2.3,5.2-5.2v-50.1
	C351.6,285.4,349.2,283.1,346.3,283.1C346.3,283.1,346.3,283.1,346.3,283.1z"/>
<path class="st0" d="M166.1,283.1c-2.9,0-5.2,2.3-5.2,5.2c0,0,0,0,0,0v50.1c0,2.9,2.4,5.2,5.2,5.2c2.9,0,5.2-2.3,5.2-5.2v-50.1
	C171.3,285.4,169,283.1,166.1,283.1C166.1,283.1,166.1,283.1,166.1,283.1z"/>
<path class="st0" d="M113.5,283.1c-2.9,0-5.3,2.4-5.3,5.3v50.1c0.1,2.9,2.6,5.1,5.5,5c2.7-0.1,4.9-2.3,5-5v-50.1
	C118.8,285.4,116.4,283.1,113.5,283.1C113.5,283.1,113.5,283.1,113.5,283.1z"/>
<path class="st0" d="M461.8,157.2h-0.3c4-4.9,6.3-11.1,6.3-17.4c-0.3-15.4-13-27.7-28.4-27.4c-15,0.3-27.1,12.4-27.4,27.4
	c0,6.4,2.2,12.5,6.3,17.4h-0.3c-13.6,0-24.7,11-24.7,24.7v27.7c-10.1-8.2-24.2-9.6-35.7-3.5v-24.2c0-13.6-11-24.6-24.6-24.7h-0.4
	c4-4.9,6.3-11.1,6.3-17.4c0-15.4-12.5-27.9-27.9-27.9S283,124.3,283,139.7c0,6.4,2.2,12.5,6.3,17.4H289c-13.6,0-24.6,11-24.7,24.7
	v45c-2.7-0.5-5.4-0.8-8.1-0.8c-6.3,0-12.4,1.6-18,4.4v-48.6c0-13.6-11-24.6-24.7-24.7h-0.3c4-4.9,6.3-11.1,6.3-17.4
	c0-15.4-12.5-27.9-27.9-27.9s-27.9,12.5-27.9,27.9c0,6.4,2.3,12.5,6.3,17.4h-0.3c-13.6,0-24.7,11-24.7,24.7v20.9
	c-9.3-1.7-18.9,0.9-26.1,7.1v-28c0-13.6-11.1-24.6-24.7-24.7h-0.3c4-4.9,6.3-11.1,6.3-17.4c-0.3-15.4-13-27.7-28.4-27.4
	c-15,0.3-27.1,12.4-27.4,27.4c0,6.4,2.3,12.5,6.3,17.4h-0.3c-13.6,0-24.6,11-24.7,24.7v40c0,2.9,2.3,5.2,5.2,5.2
	c2.9,0,5.2-2.3,5.2-5.2v-40c0-7.8,6.4-14.2,14.2-14.2h43.8c7.8,0,14.2,6.3,14.2,14.2v40c0,0.6,0.1,1.1,0.3,1.7
	c-4.9,12.1-2.2,26,6.9,35.4h-3.2c-16.3,0-29.5,13.2-29.5,29.5v50c0,2.9,2.3,5.2,5.2,5.2c2.9,0,5.2-2.3,5.2-5.2c0,0,0,0,0,0v-50
	c0-10.5,8.5-19,19-19h54.9c10.5,0,19,8.5,19,19v106.5c0.1,2.9,2.6,5.1,5.5,5c2.7-0.1,4.9-2.3,5-5v-62.6c0-13.9,11.2-25.1,25.1-25.1
	h68.6c13.9,0,25.1,11.2,25.1,25.1v62.6c0.1,2.9,2.6,5.1,5.5,5c2.7-0.1,4.9-2.3,5-5V288.4c0-10.5,8.5-19,19-19l0,0H400
	c10.5,0,19,8.5,19,19l0,0v50c0,2.9,2.3,5.2,5.2,5.2c2.9,0,5.2-2.3,5.2-5.2v-50c0-16.3-13.2-29.5-29.5-29.5h-3.2
	c9.3-9.6,11.9-23.9,6.7-36.1c0.1-0.3,0.1-0.6,0.2-0.9v-40c0-7.8,6.4-14.2,14.2-14.2h43.9c7.8-0.1,14.2,6.2,14.3,14.1c0,0,0,0,0,0.1
	v40c0,2.9,2.3,5.2,5.2,5.2c2.9,0,5.2-2.3,5.2-5.2v-40C486.5,168.2,475.4,157.2,461.8,157.2z M54.7,139.7c0-9.6,7.8-17.4,17.4-17.4
	s17.4,7.8,17.4,17.4s-7.8,17.4-17.4,17.4c0,0,0,0,0,0C62.5,157.1,54.7,149.4,54.7,139.7z M293.5,139.7c0-9.6,7.8-17.4,17.4-17.4
	c9.6,0,17.4,7.8,17.4,17.4s-7.8,17.4-17.4,17.4c0,0,0,0,0,0C301.3,157.1,293.5,149.4,293.5,139.7z M286.4,266.6
	c0,16.7-13.5,30.2-30.2,30.2c-16.7,0-30.2-13.5-30.2-30.2c0-16.7,13.5-30.2,30.2-30.2l0,0C272.9,236.5,286.4,250,286.4,266.6z
	 M174.1,139.7c0-9.6,7.8-17.4,17.4-17.4s17.4,7.8,17.4,17.4s-7.8,17.4-17.4,17.4l0,0C181.9,157.1,174.1,149.4,174.1,139.7z
	 M116.7,235.8c0-12.8,10.3-23.1,23.1-23.1c12.8,0,23.1,10.3,23.1,23.1c0,12.8-10.3,23.1-23.1,23.1
	C127.1,258.9,116.7,248.5,116.7,235.8z M221.9,296.8c-9.4,0-18.4,3.7-25.1,10.4v-18.8c0-16.3-13.2-29.5-29.5-29.5h-3.2
	c12.8-13.2,12.4-34.3-0.9-47c-2.3-2.2-5-4.1-7.8-5.6v-24.4c0-7.8,6.4-14.2,14.2-14.2h43.9c7.8,0,14.2,6.3,14.2,14.2v54
	c0,0.6,0.1,1.1,0.3,1.6c-16.1,15.4-16.7,40.9-1.3,56.9c0.8,0.8,1.6,1.6,2.5,2.4L221.9,296.8z M315.6,288.4v18.8
	c-6.7-6.7-15.7-10.4-25.1-10.4h-7.3c16.7-14.7,18.3-40.1,3.6-56.8c-3.4-3.9-7.5-7-12.1-9.3v-48.8c0-7.8,6.4-14.2,14.2-14.2
	c0,0,0,0,0,0h43.9c7.8,0,14.2,6.3,14.2,14.2v32.4c-11.2,13-10.6,32.3,1.3,44.6h-3.2C328.9,258.9,315.6,272.1,315.6,288.4
	L315.6,288.4z M349.5,235.8c0-12.8,10.3-23.1,23.1-23.1c12.8,0,23.1,10.3,23.1,23.1c0,12.8-10.3,23.1-23.1,23.1
	C359.9,258.9,349.5,248.5,349.5,235.8L349.5,235.8z M422.4,139.7c0-9.6,7.8-17.4,17.4-17.4c9.6,0,17.4,7.8,17.4,17.4
	s-7.8,17.4-17.4,17.4c0,0,0,0,0,0C430.2,157.2,422.4,149.4,422.4,139.7L422.4,139.7z"/>
</svg>
