<svg id="Layer_1" data-name="Layer 1" xmlns="http://www.w3.org/2000/svg" viewBox="0 0 49.26 40.03"><defs><style>.cls-1{fill:#eb870c;}</style></defs><title>twittercopy</title><path class="cls-1" d="M52.84,15.06A20.17,20.17,0,0,1,47,16.66a10.14,10.14,0,0,0,4.45-5.6,20.47,20.47,0,0,1-6.42,2.46,10.11,10.11,0,0,0-17.48,6.91,9.86,9.86,0,0,0,.26,2.31A28.77,28.77,0,0,1,7,12.18a10.14,10.14,0,0,0,3.13,13.49A10.06,10.06,0,0,1,5.55,24.4v.13a10.12,10.12,0,0,0,8.11,9.91A10.16,10.16,0,0,1,11,34.8a10.74,10.74,0,0,1-1.9-.18,10.11,10.11,0,0,0,9.44,7A20.23,20.23,0,0,1,6,46a21.54,21.54,0,0,1-2.42-.14,28.62,28.62,0,0,0,15.5,4.54c18.59,0,28.75-15.4,28.75-28.76,0-.43,0-.87,0-1.3A20.75,20.75,0,0,0,52.84,15.06Z" transform="translate(-3.57 -10.33)"/></svg>